M48
; DRILL file {KiCad 9.0.6} date 2025-12-23T18:43:19+0100
; FORMAT={-:-/ absolute / metric / decimal}
; #@! TF.CreationDate,2025-12-23T18:43:19+01:00
; #@! TF.GenerationSoftware,Kicad,Pcbnew,9.0.6
; #@! TF.FileFunction,Plated,1,2,PTH
FMAT,2
METRIC
; #@! TA.AperFunction,Plated,PTH,ViaDrill
T1C0.300
; #@! TA.AperFunction,Plated,PTH,ComponentDrill
T2C0.889
; #@! TA.AperFunction,Plated,PTH,ComponentDrill
T3C1.000
; #@! TA.AperFunction,Plated,PTH,ComponentDrill
T4C1.500
%
G90
G05
T1
X146.4Y-85.3
T2
X173.2Y-74.36
X173.2Y-76.9
X173.2Y-79.44
X173.2Y-81.98
X173.2Y-84.52
X173.2Y-87.06
X173.2Y-89.6
X188.44Y-74.36
X188.44Y-76.9
X188.44Y-79.44
X188.44Y-81.98
X188.44Y-84.52
X188.44Y-87.06
X188.44Y-89.6
T3
X149.916Y-77.5
X149.916Y-80.0
X149.916Y-82.5
X164.416Y-77.5
X164.416Y-82.5
X177.38Y-97.0
X179.92Y-97.0
X182.46Y-97.0
X185.0Y-97.0
T4
X133.353Y-78.583
X133.353Y-97.633
X133.353Y-116.684
X139.703Y-76.043
X139.703Y-95.093
X139.703Y-114.144
X152.403Y-97.633
X152.403Y-116.684
X158.753Y-95.093
X158.753Y-114.144
T4
G00X156.766Y-74.4
M15
G01X158.066Y-74.4
M16
G05
G00X156.766Y-85.6
M15
G01X158.066Y-85.6
M16
G05
M30
